<?xml version="1.0" encoding="UTF-8"?>
<svg xmlns="http://www.w3.org/2000/svg" xmlns:xlink="http://www.w3.org/1999/xlink" width="70px" height="70px" viewBox="0 0 70 70" version="1.1">
<g id="surface1">
<path style=" stroke:none;fill-rule:nonzero;fill:rgb(83.137255%,88.235294%,95.686275%);fill-opacity:1;" d="M 37.734375 52.117188 C 35 52.117188 32.335938 51.234375 30.144531 49.601562 C 27.949219 47.96875 26.339844 45.675781 25.554688 43.054688 C 24.769531 40.433594 24.851562 37.632812 25.785156 35.0625 C 26.71875 32.492188 28.457031 30.292969 30.742188 28.789062 C 29.042969 29.390625 27.496094 30.34375 26.195312 31.589844 C 24.898438 32.832031 23.878906 34.339844 23.203125 36.007812 C 22.53125 37.675781 22.21875 39.46875 22.289062 41.265625 C 22.359375 43.066406 22.808594 44.828125 23.613281 46.4375 C 24.414062 48.046875 25.550781 49.46875 26.941406 50.609375 C 28.335938 51.75 29.953125 52.578125 31.691406 53.046875 C 33.429688 53.511719 35.246094 53.605469 37.019531 53.320312 C 38.796875 53.03125 40.492188 52.371094 41.996094 51.378906 C 40.625 51.867188 39.1875 52.117188 37.734375 52.117188 Z M 37.734375 52.117188 "/>
<path style=" stroke:none;fill-rule:nonzero;fill:rgb(10.196078%,89.803922%,74.509804%);fill-opacity:1;" d="M 43.070312 33.492188 C 42.941406 33.402344 42.796875 33.347656 42.644531 33.328125 C 42.492188 33.308594 42.335938 33.324219 42.191406 33.375 C 37.546875 35.0625 32.453125 35.0625 27.808594 33.375 C 27.664062 33.324219 27.507812 33.308594 27.355469 33.328125 C 27.203125 33.347656 27.058594 33.402344 26.933594 33.492188 C 26.804688 33.578125 26.703125 33.699219 26.632812 33.832031 C 26.5625 33.96875 26.523438 34.121094 26.523438 34.277344 L 26.523438 39.808594 C 26.523438 40.007812 26.582031 40.199219 26.695312 40.359375 C 26.808594 40.519531 26.96875 40.640625 27.152344 40.710938 C 32.222656 42.550781 37.777344 42.550781 42.847656 40.710938 C 43.03125 40.640625 43.191406 40.519531 43.304688 40.359375 C 43.414062 40.199219 43.476562 40.007812 43.476562 39.8125 L 43.476562 34.277344 C 43.476562 34.121094 43.4375 33.96875 43.367188 33.832031 C 43.296875 33.699219 43.195312 33.582031 43.070312 33.492188 Z M 41.5625 39.128906 C 37.300781 40.523438 32.699219 40.523438 28.4375 39.128906 L 28.4375 35.601562 C 32.71875 36.875 37.28125 36.875 41.5625 35.601562 Z M 41.5625 39.128906 "/>
<path style=" stroke:none;fill-rule:nonzero;fill:rgb(10.196078%,89.803922%,74.509804%);fill-opacity:1;" d="M 43.203125 19.140625 L 36.59375 19.140625 C 36.339844 19.140625 36.097656 19.242188 35.917969 19.421875 C 35.738281 19.601562 35.636719 19.84375 35.636719 20.097656 C 35.636719 20.351562 35.738281 20.59375 35.917969 20.773438 C 36.097656 20.953125 36.339844 21.054688 36.59375 21.054688 L 43.203125 21.054688 C 43.457031 21.054688 43.699219 20.953125 43.878906 20.773438 C 44.058594 20.59375 44.160156 20.351562 44.160156 20.097656 C 44.160156 19.84375 44.058594 19.601562 43.878906 19.421875 C 43.699219 19.242188 43.457031 19.140625 43.203125 19.140625 Z M 43.203125 19.140625 "/>
<path style=" stroke:none;fill-rule:nonzero;fill:rgb(10.196078%,89.803922%,74.509804%);fill-opacity:1;" d="M 33.410156 21.054688 C 33.664062 21.054688 33.90625 20.953125 34.085938 20.773438 C 34.265625 20.59375 34.367188 20.351562 34.367188 20.097656 C 34.367188 19.84375 34.265625 19.601562 34.085938 19.421875 C 33.90625 19.242188 33.664062 19.140625 33.410156 19.140625 L 26.796875 19.140625 C 26.542969 19.140625 26.300781 19.242188 26.121094 19.421875 C 25.941406 19.601562 25.839844 19.84375 25.839844 20.097656 C 25.839844 20.351562 25.941406 20.59375 26.121094 20.773438 C 26.300781 20.953125 26.542969 21.054688 26.796875 21.054688 Z M 33.410156 21.054688 "/>
<path style=" stroke:none;fill-rule:nonzero;fill:rgb(10.196078%,89.803922%,74.509804%);fill-opacity:1;" d="M 31.582031 55.464844 C 30.988281 55.464844 30.40625 55.640625 29.910156 55.972656 C 29.417969 56.300781 29.03125 56.773438 28.804688 57.320312 C 28.574219 57.871094 28.515625 58.476562 28.632812 59.058594 C 28.75 59.644531 29.035156 60.179688 29.457031 60.597656 C 29.875 61.019531 30.410156 61.304688 30.996094 61.421875 C 31.578125 61.539062 32.183594 61.480469 32.734375 61.25 C 33.28125 61.023438 33.753906 60.636719 34.082031 60.144531 C 34.414062 59.648438 34.589844 59.066406 34.589844 58.472656 C 34.589844 57.675781 34.273438 56.910156 33.707031 56.347656 C 33.144531 55.78125 32.378906 55.464844 31.582031 55.464844 Z M 31.582031 59.566406 C 31.367188 59.566406 31.15625 59.503906 30.972656 59.382812 C 30.792969 59.261719 30.65625 59.089844 30.570312 58.890625 C 30.488281 58.691406 30.46875 58.472656 30.507812 58.257812 C 30.550781 58.046875 30.65625 57.851562 30.808594 57.699219 C 30.960938 57.546875 31.15625 57.441406 31.367188 57.398438 C 31.582031 57.359375 31.800781 57.378906 32 57.460938 C 32.199219 57.546875 32.371094 57.683594 32.492188 57.863281 C 32.613281 58.042969 32.675781 58.257812 32.675781 58.472656 C 32.675781 58.761719 32.558594 59.039062 32.355469 59.246094 C 32.148438 59.449219 31.871094 59.566406 31.582031 59.566406 Z M 31.582031 59.566406 "/>
<path style=" stroke:none;fill-rule:nonzero;fill:rgb(10.196078%,89.803922%,74.509804%);fill-opacity:1;" d="M 38.417969 55.464844 C 37.824219 55.464844 37.242188 55.640625 36.746094 55.972656 C 36.253906 56.300781 35.867188 56.773438 35.640625 57.320312 C 35.410156 57.871094 35.351562 58.476562 35.46875 59.058594 C 35.582031 59.644531 35.871094 60.179688 36.292969 60.597656 C 36.710938 61.019531 37.246094 61.304688 37.832031 61.421875 C 38.414062 61.539062 39.019531 61.480469 39.570312 61.25 C 40.117188 61.023438 40.589844 60.636719 40.917969 60.144531 C 41.25 59.648438 41.425781 59.066406 41.425781 58.472656 C 41.425781 57.675781 41.109375 56.910156 40.542969 56.347656 C 39.980469 55.78125 39.214844 55.464844 38.417969 55.464844 Z M 38.417969 59.566406 C 38.203125 59.566406 37.988281 59.503906 37.808594 59.382812 C 37.628906 59.261719 37.492188 59.089844 37.40625 58.890625 C 37.324219 58.691406 37.304688 58.472656 37.34375 58.257812 C 37.386719 58.046875 37.492188 57.851562 37.644531 57.699219 C 37.796875 57.546875 37.992188 57.441406 38.203125 57.398438 C 38.417969 57.359375 38.636719 57.378906 38.835938 57.460938 C 39.035156 57.546875 39.207031 57.683594 39.328125 57.863281 C 39.449219 58.042969 39.511719 58.257812 39.511719 58.472656 C 39.511719 58.761719 39.394531 59.039062 39.191406 59.246094 C 38.984375 59.449219 38.707031 59.566406 38.417969 59.566406 Z M 38.417969 59.566406 "/>
<path style=" stroke:none;fill-rule:nonzero;fill:rgb(10.196078%,89.803922%,74.509804%);fill-opacity:1;" d="M 43.070312 33.492188 C 42.941406 33.402344 42.796875 33.347656 42.644531 33.328125 C 42.492188 33.308594 42.335938 33.324219 42.191406 33.375 C 37.546875 35.0625 32.453125 35.0625 27.808594 33.375 C 27.664062 33.324219 27.507812 33.308594 27.355469 33.328125 C 27.203125 33.347656 27.058594 33.402344 26.933594 33.492188 C 26.804688 33.578125 26.703125 33.699219 26.632812 33.832031 C 26.5625 33.96875 26.523438 34.121094 26.523438 34.277344 L 26.523438 39.808594 C 26.523438 40.007812 26.582031 40.199219 26.695312 40.359375 C 26.808594 40.519531 26.96875 40.640625 27.152344 40.710938 C 32.222656 42.550781 37.777344 42.550781 42.847656 40.710938 C 43.03125 40.640625 43.191406 40.519531 43.304688 40.359375 C 43.414062 40.199219 43.476562 40.007812 43.476562 39.8125 L 43.476562 34.277344 C 43.476562 34.121094 43.4375 33.96875 43.367188 33.832031 C 43.296875 33.699219 43.195312 33.582031 43.070312 33.492188 Z M 41.5625 39.128906 C 37.300781 40.523438 32.699219 40.523438 28.4375 39.128906 L 28.4375 35.601562 C 32.71875 36.875 37.28125 36.875 41.5625 35.601562 Z M 41.5625 39.128906 "/>
<path style=" stroke:none;fill-rule:nonzero;fill:rgb(10.196078%,89.803922%,74.509804%);fill-opacity:1;" d="M 43.203125 19.140625 L 36.59375 19.140625 C 36.339844 19.140625 36.097656 19.242188 35.917969 19.421875 C 35.738281 19.601562 35.636719 19.84375 35.636719 20.097656 C 35.636719 20.351562 35.738281 20.59375 35.917969 20.773438 C 36.097656 20.953125 36.339844 21.054688 36.59375 21.054688 L 43.203125 21.054688 C 43.457031 21.054688 43.699219 20.953125 43.878906 20.773438 C 44.058594 20.59375 44.160156 20.351562 44.160156 20.097656 C 44.160156 19.84375 44.058594 19.601562 43.878906 19.421875 C 43.699219 19.242188 43.457031 19.140625 43.203125 19.140625 Z M 43.203125 19.140625 "/>
<path style=" stroke:none;fill-rule:nonzero;fill:rgb(10.196078%,89.803922%,74.509804%);fill-opacity:1;" d="M 33.410156 21.054688 C 33.664062 21.054688 33.90625 20.953125 34.085938 20.773438 C 34.265625 20.59375 34.367188 20.351562 34.367188 20.097656 C 34.367188 19.84375 34.265625 19.601562 34.085938 19.421875 C 33.90625 19.242188 33.664062 19.140625 33.410156 19.140625 L 26.796875 19.140625 C 26.542969 19.140625 26.300781 19.242188 26.121094 19.421875 C 25.941406 19.601562 25.839844 19.84375 25.839844 20.097656 C 25.839844 20.351562 25.941406 20.59375 26.121094 20.773438 C 26.300781 20.953125 26.542969 21.054688 26.796875 21.054688 Z M 33.410156 21.054688 "/>
<path style=" stroke:none;fill-rule:nonzero;fill:rgb(10.196078%,89.803922%,74.509804%);fill-opacity:1;" d="M 31.582031 55.464844 C 30.988281 55.464844 30.40625 55.640625 29.910156 55.972656 C 29.417969 56.300781 29.03125 56.773438 28.804688 57.320312 C 28.574219 57.871094 28.515625 58.476562 28.632812 59.058594 C 28.75 59.644531 29.035156 60.179688 29.457031 60.597656 C 29.875 61.019531 30.410156 61.304688 30.996094 61.421875 C 31.578125 61.539062 32.183594 61.480469 32.734375 61.25 C 33.28125 61.023438 33.753906 60.636719 34.082031 60.144531 C 34.414062 59.648438 34.589844 59.066406 34.589844 58.472656 C 34.589844 57.675781 34.273438 56.910156 33.707031 56.347656 C 33.144531 55.78125 32.378906 55.464844 31.582031 55.464844 Z M 31.582031 59.566406 C 31.367188 59.566406 31.15625 59.503906 30.972656 59.382812 C 30.792969 59.261719 30.65625 59.089844 30.570312 58.890625 C 30.488281 58.691406 30.46875 58.472656 30.507812 58.257812 C 30.550781 58.046875 30.65625 57.851562 30.808594 57.699219 C 30.960938 57.546875 31.15625 57.441406 31.367188 57.398438 C 31.582031 57.359375 31.800781 57.378906 32 57.460938 C 32.199219 57.546875 32.371094 57.683594 32.492188 57.863281 C 32.613281 58.042969 32.675781 58.257812 32.675781 58.472656 C 32.675781 58.761719 32.558594 59.039062 32.355469 59.246094 C 32.148438 59.449219 31.871094 59.566406 31.582031 59.566406 Z M 31.582031 59.566406 "/>
<path style=" stroke:none;fill-rule:nonzero;fill:rgb(10.196078%,89.803922%,74.509804%);fill-opacity:1;" d="M 38.417969 55.464844 C 37.824219 55.464844 37.242188 55.640625 36.746094 55.972656 C 36.253906 56.300781 35.867188 56.773438 35.640625 57.320312 C 35.410156 57.871094 35.351562 58.476562 35.46875 59.058594 C 35.582031 59.644531 35.871094 60.179688 36.292969 60.597656 C 36.710938 61.019531 37.246094 61.304688 37.832031 61.421875 C 38.414062 61.539062 39.019531 61.480469 39.570312 61.25 C 40.117188 61.023438 40.589844 60.636719 40.917969 60.144531 C 41.25 59.648438 41.425781 59.066406 41.425781 58.472656 C 41.425781 57.675781 41.109375 56.910156 40.542969 56.347656 C 39.980469 55.78125 39.214844 55.464844 38.417969 55.464844 Z M 38.417969 59.566406 C 38.203125 59.566406 37.988281 59.503906 37.808594 59.382812 C 37.628906 59.261719 37.492188 59.089844 37.40625 58.890625 C 37.324219 58.691406 37.304688 58.472656 37.34375 58.257812 C 37.386719 58.046875 37.492188 57.851562 37.644531 57.699219 C 37.796875 57.546875 37.992188 57.441406 38.203125 57.398438 C 38.417969 57.359375 38.636719 57.378906 38.835938 57.460938 C 39.035156 57.546875 39.207031 57.683594 39.328125 57.863281 C 39.449219 58.042969 39.511719 58.257812 39.511719 58.472656 C 39.511719 58.761719 39.394531 59.039062 39.191406 59.246094 C 38.984375 59.449219 38.707031 59.566406 38.417969 59.566406 Z M 38.417969 59.566406 "/>
<path style=" stroke:none;fill-rule:nonzero;fill:rgb(2.352941%,20.784314%,78.823529%);fill-opacity:1;" d="M 67.84375 46.914062 C 67.816406 46.90625 67.789062 46.894531 67.761719 46.886719 L 49.585938 41.894531 C 49.613281 41.523438 49.628906 41.144531 49.628906 40.769531 C 49.625 37.5 48.53125 34.332031 46.515625 31.757812 C 44.503906 29.183594 41.691406 27.359375 38.523438 26.566406 L 35.945312 9.335938 C 35.914062 9.109375 35.800781 8.902344 35.625 8.75 C 35.453125 8.601562 35.230469 8.519531 35 8.519531 C 34.769531 8.519531 34.550781 8.601562 34.375 8.75 C 34.203125 8.902344 34.085938 9.109375 34.054688 9.335938 L 31.480469 26.566406 C 28.308594 27.359375 25.496094 29.183594 23.484375 31.757812 C 21.472656 34.332031 20.375 37.5 20.371094 40.769531 C 20.371094 41.132812 20.386719 41.496094 20.414062 41.855469 L 2.234375 46.886719 C 2.207031 46.894531 2.179688 46.90625 2.152344 46.914062 C 1.898438 47.007812 1.675781 47.167969 1.507812 47.378906 C 1.339844 47.589844 1.230469 47.839844 1.191406 48.105469 C 1.152344 48.375 1.1875 48.644531 1.289062 48.894531 C 1.390625 49.144531 1.558594 49.359375 1.773438 49.523438 L 3.71875 50.992188 C 3.980469 51.1875 4.300781 51.292969 4.625 51.292969 C 4.691406 51.292969 4.757812 51.289062 4.824219 51.277344 L 10.527344 50.707031 L 10.527344 52.363281 L 12.441406 52.363281 L 12.441406 50.515625 L 23.199219 49.441406 C 24.5625 51.285156 26.335938 52.785156 28.382812 53.820312 C 30.425781 54.851562 32.6875 55.394531 34.976562 55.394531 C 37.269531 55.398438 39.53125 54.867188 41.578125 53.839844 C 43.625 52.8125 45.40625 51.316406 46.773438 49.480469 L 57.558594 50.527344 L 57.558594 52.363281 L 59.472656 52.363281 L 59.472656 50.714844 L 65.1875 51.277344 C 65.253906 51.289062 65.320312 51.296875 65.390625 51.296875 C 65.714844 51.292969 66.03125 51.1875 66.289062 50.992188 L 68.230469 49.523438 C 68.445312 49.359375 68.609375 49.144531 68.710938 48.894531 C 68.816406 48.644531 68.847656 48.371094 68.808594 48.105469 C 68.769531 47.839844 68.660156 47.585938 68.488281 47.378906 C 68.320312 47.167969 68.097656 47.007812 67.84375 46.914062 Z M 35 15.953125 L 36.535156 26.21875 C 35.515625 26.113281 34.484375 26.113281 33.464844 26.21875 Z M 4.742188 49.363281 L 3.59375 48.496094 L 20.683594 43.769531 C 20.964844 45.117188 21.4375 46.417969 22.085938 47.632812 Z M 35 53.484375 C 32.484375 53.484375 30.027344 52.738281 27.9375 51.339844 C 25.84375 49.941406 24.214844 47.957031 23.253906 45.632812 C 22.289062 43.308594 22.039062 40.753906 22.53125 38.285156 C 23.019531 35.820312 24.230469 33.554688 26.007812 31.777344 C 27.789062 30 30.054688 28.789062 32.519531 28.296875 C 34.984375 27.804688 37.542969 28.058594 39.867188 29.019531 C 42.191406 29.984375 44.175781 31.613281 45.574219 33.703125 C 46.96875 35.792969 47.714844 38.253906 47.714844 40.769531 C 47.710938 44.136719 46.371094 47.371094 43.988281 49.753906 C 41.601562 52.136719 38.371094 53.480469 35 53.484375 Z M 65.257812 49.367188 L 47.894531 47.667969 C 48.550781 46.453125 49.027344 45.152344 49.3125 43.800781 L 66.402344 48.5 Z M 65.257812 49.367188 "/>
<path style=" stroke:none;fill-rule:nonzero;fill:rgb(10.196078%,89.803922%,74.509804%);fill-opacity:1;" d="M 11.539062 51.089844 C 10.945312 51.089844 10.363281 51.265625 9.867188 51.597656 C 9.375 51.925781 8.988281 52.398438 8.761719 52.945312 C 8.53125 53.496094 8.472656 54.101562 8.589844 54.683594 C 8.707031 55.269531 8.992188 55.804688 9.414062 56.222656 C 9.832031 56.644531 10.371094 56.929688 10.953125 57.046875 C 11.535156 57.164062 12.140625 57.105469 12.691406 56.875 C 13.238281 56.648438 13.710938 56.261719 14.039062 55.769531 C 14.371094 55.273438 14.546875 54.691406 14.546875 54.097656 C 14.546875 53.300781 14.230469 52.535156 13.664062 51.972656 C 13.101562 51.40625 12.335938 51.089844 11.539062 51.089844 Z M 11.539062 55.191406 C 11.324219 55.191406 11.113281 55.128906 10.933594 55.007812 C 10.753906 54.886719 10.613281 54.714844 10.527344 54.515625 C 10.445312 54.316406 10.425781 54.097656 10.46875 53.882812 C 10.507812 53.671875 10.613281 53.476562 10.765625 53.324219 C 10.917969 53.171875 11.113281 53.066406 11.328125 53.023438 C 11.539062 52.984375 11.757812 53.003906 11.957031 53.085938 C 12.15625 53.171875 12.328125 53.308594 12.449219 53.488281 C 12.570312 53.667969 12.632812 53.882812 12.632812 54.097656 C 12.632812 54.386719 12.519531 54.664062 12.3125 54.871094 C 12.109375 55.074219 11.828125 55.191406 11.539062 55.191406 Z M 11.539062 55.191406 "/>
<path style=" stroke:none;fill-rule:nonzero;fill:rgb(10.196078%,89.803922%,74.509804%);fill-opacity:1;" d="M 58.449219 51.089844 C 57.851562 51.089844 57.269531 51.265625 56.777344 51.597656 C 56.28125 51.925781 55.894531 52.398438 55.667969 52.945312 C 55.441406 53.496094 55.382812 54.101562 55.496094 54.683594 C 55.613281 55.269531 55.898438 55.804688 56.320312 56.222656 C 56.742188 56.644531 57.277344 56.929688 57.859375 57.046875 C 58.445312 57.164062 59.046875 57.105469 59.597656 56.875 C 60.148438 56.648438 60.617188 56.261719 60.949219 55.769531 C 61.277344 55.273438 61.457031 54.691406 61.457031 54.097656 C 61.453125 53.300781 61.136719 52.535156 60.574219 51.972656 C 60.007812 51.40625 59.246094 51.089844 58.449219 51.089844 Z M 58.449219 55.191406 C 58.230469 55.191406 58.019531 55.128906 57.839844 55.007812 C 57.660156 54.886719 57.519531 54.714844 57.4375 54.515625 C 57.355469 54.316406 57.332031 54.097656 57.375 53.882812 C 57.417969 53.671875 57.519531 53.476562 57.671875 53.324219 C 57.828125 53.171875 58.023438 53.066406 58.234375 53.023438 C 58.445312 52.984375 58.664062 53.003906 58.867188 53.085938 C 59.066406 53.171875 59.238281 53.308594 59.355469 53.488281 C 59.476562 53.667969 59.539062 53.882812 59.539062 54.097656 C 59.539062 54.386719 59.425781 54.664062 59.21875 54.871094 C 59.015625 55.074219 58.738281 55.191406 58.449219 55.191406 Z M 58.449219 55.191406 "/>
</g>
</svg>
